<svg width="58" height="11" viewBox="0 0 58 11" fill="none" xmlns="http://www.w3.org/2000/svg">
<path d="M4.85742 9H2.53125V1.64062H0.234375V0.5625H7.1543V1.64062H4.85742V9Z" fill="url(#paint0_linear_3_5)"/>
<path d="M10.6758 9H8.34961V0.5625H10.6758V4.24805H13.7578V0.5625H16.084V9H13.7578V5.32031H10.6758V9Z" fill="url(#paint1_linear_3_5)"/>
<path d="M24.0527 9H17.9941V0.5625H24.0527V1.64062H20.3203V4.24805H23.2031V5.32031H20.3203V7.92188H24.0527V9Z" fill="url(#paint2_linear_3_5)"/>
<path d="M33.5273 4.96289V5.07422C33.5195 5.40234 33.4844 5.74219 33.4219 6.09375C33.3633 6.44531 33.2793 6.79688 33.1699 7.14844C33.0605 7.5 32.9297 7.84766 32.7773 8.19141C32.625 8.53516 32.4531 8.86328 32.2617 9.17578C32.0742 9.49219 31.8711 9.78711 31.6523 10.0605C31.4336 10.3379 31.2031 10.582 30.9609 10.793L30.0879 10.2891C30.2246 10.0586 30.3477 9.80664 30.457 9.5332C30.5703 9.26367 30.6719 8.98047 30.7617 8.68359C30.8516 8.38672 30.9277 8.08203 30.9902 7.76953C31.0566 7.45703 31.1113 7.14648 31.1543 6.83789C31.1973 6.5293 31.2285 6.22656 31.248 5.92969C31.2715 5.62891 31.2832 5.34375 31.2832 5.07422C31.2832 4.86328 31.2812 4.625 31.2773 4.35938C31.2773 4.08984 31.2617 3.81641 31.2305 3.53906C31.2031 3.26172 31.1562 2.99219 31.0898 2.73047C31.0234 2.46484 30.9238 2.22852 30.791 2.02148C30.6621 1.81445 30.4941 1.64844 30.2871 1.52344C30.084 1.39844 29.8301 1.33594 29.5254 1.33594C29.2559 1.33594 29.0234 1.38281 28.8281 1.47656C28.6367 1.56641 28.4727 1.68945 28.3359 1.8457C28.2031 1.99805 28.0957 2.17578 28.0137 2.37891C27.9355 2.58203 27.873 2.79688 27.8262 3.02344C27.7832 3.24609 27.7539 3.47266 27.7383 3.70312C27.7266 3.92969 27.7207 4.14453 27.7207 4.34766V5.98242H30.2461V6.94922H27.7207V9H25.3945V4.71094C25.3945 4.09766 25.4922 3.52734 25.6875 3C25.8828 2.47266 26.1582 2.01562 26.5137 1.62891C26.873 1.23828 27.3027 0.933594 27.8027 0.714844C28.3066 0.492188 28.8672 0.380859 29.4844 0.380859C29.9023 0.380859 30.293 0.441406 30.6562 0.5625C31.0234 0.679688 31.3574 0.84375 31.6582 1.05469C31.959 1.26172 32.2266 1.50977 32.4609 1.79883C32.6992 2.08398 32.8965 2.39648 33.0527 2.73633C33.2129 3.07617 33.334 3.43555 33.416 3.81445C33.498 4.19336 33.5352 4.57617 33.5273 4.96289Z" fill="url(#paint3_linear_3_5)"/>
<path d="M38.5137 9H36.1875V1.64062H33.8906V0.5625H40.8105V1.64062H38.5137V9Z" fill="url(#paint4_linear_3_5)"/>
<path d="M48.0645 9H42.0059V0.5625H48.0645V1.64062H44.332V4.24805H47.2148V5.32031H44.332V7.92188H48.0645V9Z" fill="url(#paint5_linear_3_5)"/>
<path d="M51.832 9H49.5059V0.5625H53.6543C54.0449 0.5625 54.4219 0.609375 54.7852 0.703125C55.1484 0.792969 55.4688 0.9375 55.7461 1.13672C56.0273 1.33203 56.25 1.58594 56.4141 1.89844C56.582 2.21094 56.666 2.58984 56.666 3.03516C56.666 3.38281 56.5918 3.71094 56.4434 4.01953C56.2988 4.32422 56.1035 4.59766 55.8574 4.83984C55.6152 5.07812 55.3359 5.27734 55.0195 5.4375C54.7031 5.59375 54.375 5.69727 54.0352 5.74805C54.1875 6.00586 54.3457 6.25 54.5098 6.48047C54.6777 6.71094 54.8457 6.92773 55.0137 7.13086C55.1855 7.33008 55.3555 7.51562 55.5234 7.6875C55.6914 7.85547 55.8516 8.00977 56.0039 8.15039C56.3633 8.47852 56.7188 8.76172 57.0703 9H54.1699C53.9355 8.77734 53.7129 8.50977 53.502 8.19727C53.3223 7.93164 53.1406 7.60352 52.957 7.21289C52.7773 6.81836 52.6387 6.36328 52.541 5.84766H51.832V9ZM54.3047 3.03516C54.3047 2.46875 54.166 2.05273 53.8887 1.78711C53.6152 1.52148 53.2031 1.38867 52.6523 1.38867H51.832V5.05078H52.6523C52.9453 5.05078 53.1953 4.99609 53.4023 4.88672C53.6133 4.77344 53.7852 4.625 53.918 4.44141C54.0508 4.25391 54.1484 4.03906 54.2109 3.79688C54.2734 3.55469 54.3047 3.30078 54.3047 3.03516Z" fill="url(#paint6_linear_3_5)"/>
<defs>
<linearGradient id="paint0_linear_3_5" x1="-11.5" y1="6" x2="56.5" y2="6" gradientUnits="userSpaceOnUse">
<stop stop-color="#33E3A4"/>
<stop offset="1" stop-color="#020A07"/>
</linearGradient>
<linearGradient id="paint1_linear_3_5" x1="-11.5" y1="6" x2="56.5" y2="6" gradientUnits="userSpaceOnUse">
<stop stop-color="#33E3A4"/>
<stop offset="1" stop-color="#020A07"/>
</linearGradient>
<linearGradient id="paint2_linear_3_5" x1="-11.5" y1="6" x2="56.5" y2="6" gradientUnits="userSpaceOnUse">
<stop stop-color="#33E3A4"/>
<stop offset="1" stop-color="#020A07"/>
</linearGradient>
<linearGradient id="paint3_linear_3_5" x1="-11.5" y1="6" x2="56.5" y2="6" gradientUnits="userSpaceOnUse">
<stop stop-color="#33E3A4"/>
<stop offset="1" stop-color="#020A07"/>
</linearGradient>
<linearGradient id="paint4_linear_3_5" x1="-11.5" y1="6" x2="56.5" y2="6" gradientUnits="userSpaceOnUse">
<stop stop-color="#33E3A4"/>
<stop offset="1" stop-color="#020A07"/>
</linearGradient>
<linearGradient id="paint5_linear_3_5" x1="-11.5" y1="6" x2="56.5" y2="6" gradientUnits="userSpaceOnUse">
<stop stop-color="#33E3A4"/>
<stop offset="1" stop-color="#020A07"/>
</linearGradient>
<linearGradient id="paint6_linear_3_5" x1="-11.5" y1="6" x2="56.5" y2="6" gradientUnits="userSpaceOnUse">
<stop stop-color="#33E3A4"/>
<stop offset="1" stop-color="#020A07"/>
</linearGradient>
</defs>
</svg>
