<svg width="297" height="66" viewBox="0 0 297 66" fill="none" xmlns="http://www.w3.org/2000/svg">
<path d="M24.158 54.6348H12.0025V7.98537H0V1.15138H36.1605V7.98537H24.158V54.6348Z" fill="url(#paint0_linear_3_5)"/>
<path d="M54.5623 54.6348H42.4067V1.15138H54.5623V24.5132H70.6676V1.15138H82.8232V54.6348H70.6676V31.3101H54.5623V54.6348Z" fill="url(#paint1_linear_3_5)"/>
<path d="M124.464 54.6348H92.8048V1.15138H124.464V7.98537H104.96V24.5132H120.025V31.3101H104.96V47.8008H124.464V54.6348Z" fill="url(#paint2_linear_3_5)"/>
<path d="M173.975 29.0445V29.7501C173.934 31.8301 173.75 33.9842 173.424 36.2127C173.117 38.4412 172.678 40.6697 172.107 42.8981C171.535 45.1266 170.852 47.3303 170.055 49.5093C169.259 51.6882 168.361 53.7681 167.361 55.749C166.381 57.7546 165.32 59.6241 164.177 61.3573C163.034 63.1154 161.829 64.6629 160.564 66L156.002 62.8059C156.716 61.345 157.359 59.7479 157.931 58.0146C158.522 56.3061 159.053 54.511 159.523 52.6292C159.992 50.7473 160.39 48.816 160.717 46.8351C161.064 44.8542 161.35 42.8858 161.574 40.9297C161.799 38.9736 161.962 37.0546 162.064 35.1728C162.186 33.2662 162.248 31.4586 162.248 29.7501C162.248 28.4131 162.238 26.9026 162.217 25.2189C162.217 23.5104 162.135 21.7772 161.972 20.0191C161.829 18.2611 161.584 16.5526 161.237 14.8936C160.89 13.2099 160.37 11.7119 159.676 10.3995C159.002 9.08723 158.124 8.03489 157.043 7.24254C155.981 6.4502 154.654 6.05402 153.062 6.05402C151.654 6.05402 150.439 6.35115 149.419 6.94541C148.418 7.51491 147.561 8.29488 146.847 9.28531C146.153 10.251 145.591 11.3776 145.163 12.6652C144.754 13.9527 144.428 15.3146 144.183 16.7507C143.958 18.1621 143.805 19.5982 143.724 21.0591C143.662 22.4952 143.632 23.8571 143.632 25.1446V35.507H156.828V41.6353H143.632V54.6348H131.476V27.4474C131.476 23.5599 131.986 19.9449 133.007 16.6021C134.028 13.2594 135.467 10.3624 137.324 7.91109C139.202 5.435 141.448 3.50366 144.06 2.11705C146.694 0.705684 149.623 0 152.848 0C155.032 0 157.073 0.383793 158.972 1.15138C160.89 1.8942 162.636 2.93416 164.207 4.27124C165.779 5.58357 167.177 7.15588 168.402 8.98818C169.647 10.7957 170.678 12.7766 171.495 14.9308C172.331 17.085 172.964 19.363 173.393 21.7648C173.822 24.1666 174.015 26.5931 173.975 29.0445Z" fill="url(#paint3_linear_3_5)"/>
<path d="M200.031 54.6348H187.875V7.98537H175.873V1.15138H212.033V7.98537H200.031V54.6348Z" fill="url(#paint4_linear_3_5)"/>
<path d="M249.939 54.6348H218.28V1.15138H249.939V7.98537H230.435V24.5132H245.5V31.3101H230.435V47.8008H249.939V54.6348Z" fill="url(#paint5_linear_3_5)"/>
<path d="M269.627 54.6348H257.471V1.15138H279.149C281.191 1.15138 283.16 1.44851 285.059 2.04277C286.957 2.61227 288.631 3.52842 290.08 4.79122C291.55 6.02926 292.713 7.63872 293.571 9.61958C294.448 11.6005 294.887 14.0023 294.887 16.825C294.887 19.0287 294.499 21.1086 293.724 23.0647C292.969 24.9961 291.948 26.7293 290.662 28.2645C289.396 29.7749 287.937 31.0377 286.283 32.0529C284.63 33.0433 282.915 33.6995 281.14 34.0214C281.936 35.6556 282.762 37.2032 283.62 38.664C284.497 40.1249 285.375 41.4992 286.253 42.7867C287.151 44.0495 288.039 45.2257 288.917 46.3151C289.794 47.3799 290.631 48.3579 291.427 49.2493C293.305 51.3292 295.163 53.1244 297 54.6348H281.844C280.619 53.2234 279.456 51.5273 278.353 49.5464C277.414 47.8627 276.465 45.7828 275.506 43.3067C274.567 40.8059 273.842 37.9212 273.332 34.6528H269.627V54.6348ZM282.548 16.825C282.548 13.2347 281.823 10.5976 280.374 8.9139C278.945 7.23016 276.792 6.38829 273.914 6.38829H269.627V29.6016H273.914C275.445 29.6016 276.751 29.2549 277.833 28.5616C278.935 27.8436 279.833 26.9026 280.527 25.7389C281.221 24.5504 281.732 23.1885 282.058 21.6533C282.385 20.1182 282.548 18.5087 282.548 16.825Z" fill="url(#paint6_linear_3_5)"/>
<defs>
<linearGradient id="paint0_linear_3_5" x1="-35.1909" y1="35.6185" x2="296.633" y2="35.6185" gradientUnits="userSpaceOnUse">
<stop stop-color="#35E4A5"/>
<stop offset="1" stop-color="#020A07"/>
</linearGradient>
<linearGradient id="paint1_linear_3_5" x1="-35.1909" y1="35.6185" x2="296.633" y2="35.6185" gradientUnits="userSpaceOnUse">
<stop stop-color="#35E4A5"/>
<stop offset="1" stop-color="#020A07"/>
</linearGradient>
<linearGradient id="paint2_linear_3_5" x1="-35.1909" y1="35.6185" x2="296.633" y2="35.6185" gradientUnits="userSpaceOnUse">
<stop stop-color="#35E4A5"/>
<stop offset="1" stop-color="#020A07"/>
</linearGradient>
<linearGradient id="paint3_linear_3_5" x1="-35.1909" y1="35.6185" x2="296.633" y2="35.6185" gradientUnits="userSpaceOnUse">
<stop stop-color="#35E4A5"/>
<stop offset="1" stop-color="#020A07"/>
</linearGradient>
<linearGradient id="paint4_linear_3_5" x1="-35.1909" y1="35.6185" x2="296.633" y2="35.6185" gradientUnits="userSpaceOnUse">
<stop stop-color="#35E4A5"/>
<stop offset="1" stop-color="#020A07"/>
</linearGradient>
<linearGradient id="paint5_linear_3_5" x1="-35.1909" y1="35.6185" x2="296.633" y2="35.6185" gradientUnits="userSpaceOnUse">
<stop stop-color="#35E4A5"/>
<stop offset="1" stop-color="#020A07"/>
</linearGradient>
<linearGradient id="paint6_linear_3_5" x1="-35.1909" y1="35.6185" x2="296.633" y2="35.6185" gradientUnits="userSpaceOnUse">
<stop stop-color="#35E4A5"/>
<stop offset="1" stop-color="#020A07"/>
</linearGradient>
</defs>
</svg>
